<svg width="32" height="32" viewBox="0 0 32 32" fill="none" xmlns="http://www.w3.org/2000/svg">
  <!-- Background circle with gradient -->
  <circle cx="16" cy="16" r="16" fill="url(#gradient)"/>
  
  <!-- Book icon -->
  <path d="M8 6C8 5.44772 8.44772 5 9 5H23C23.5523 5 24 5.44772 24 6V26C24 26.5523 23.5523 27 23 27H9C8.44772 27 8 26.5523 8 26V6Z" fill="white" fill-opacity="0.9"/>
  
  <!-- Book pages -->
  <path d="M10 8H22V10H10V8Z" fill="#3B82F6"/>
  <path d="M10 12H22V14H10V12Z" fill="#3B82F6"/>
  <path d="M10 16H18V18H10V16Z" fill="#3B82F6"/>
  
  <!-- Graduation cap accent -->
  <circle cx="20" cy="12" r="3" fill="#8B5CF6"/>
  <path d="M17 9L23 9L20 6L17 9Z" fill="#8B5CF6"/>
  
  <!-- Gradient definition -->
  <defs>
    <linearGradient id="gradient" x1="0%" y1="0%" x2="100%" y2="100%">
      <stop offset="0%" style="stop-color:#3B82F6;stop-opacity:1" />
      <stop offset="100%" style="stop-color:#8B5CF6;stop-opacity:1" />
    </linearGradient>
  </defs>
</svg>